<svg width="18" height="18" viewBox="0 0 18 18" fill="none" xmlns="http://www.w3.org/2000/svg">
<path fill-rule="evenodd" clip-rule="evenodd" d="M4.486 15.7557C5.82214 16.6485 7.39303 17.125 9 17.125C11.1542 17.1228 13.2196 16.2661 14.7428 14.7428C16.2661 13.2196 17.1228 11.1542 17.125 9C17.125 7.39303 16.6485 5.82214 15.7557 4.486C14.8629 3.14985 13.594 2.10844 12.1093 1.49348C10.6247 0.87852 8.99099 0.717618 7.41489 1.03112C5.8388 1.34463 4.39106 2.11846 3.25476 3.25476C2.11846 4.39106 1.34463 5.8388 1.03112 7.41489C0.717618 8.99099 0.87852 10.6247 1.49348 12.1093C2.10844 13.594 3.14985 14.8629 4.486 15.7557ZM8.56045 9.85622C8.67719 9.97297 8.83491 10.0395 9 10.0417C9.16509 10.0395 9.32281 9.97297 9.43956 9.85622C9.5563 9.73948 9.62285 9.58176 9.625 9.41667V5.25C9.625 5.08424 9.55916 4.92527 9.44195 4.80806C9.32474 4.69085 9.16576 4.625 9 4.625C8.83424 4.625 8.67527 4.69085 8.55806 4.80806C8.44085 4.92527 8.375 5.08424 8.375 5.25V9.41667C8.37716 9.58176 8.4437 9.73948 8.56045 9.85622ZM8.33953 11.8787C8.51432 11.7024 8.75171 11.6022 9 11.6C9.24975 11.6 9.48927 11.6992 9.66586 11.8758C9.84246 12.0524 9.94167 12.2919 9.94167 12.5417C9.94167 12.7914 9.84246 13.0309 9.66586 13.2075C9.48927 13.3841 9.24975 13.4833 9 13.4833C8.75171 13.4811 8.51432 13.381 8.33953 13.2046C8.16473 13.0282 8.06666 12.79 8.06667 12.5417C8.06666 12.2934 8.16473 12.0551 8.33953 11.8787Z" fill="#F2363B"/>
</svg>
