<svg width="18" height="18" viewBox="0 0 18 18" fill="none" xmlns="http://www.w3.org/2000/svg">
<path fill-rule="evenodd" clip-rule="evenodd" d="M9 0.875C4.51232 0.875 0.875 4.51232 0.875 9C0.875 13.4877 4.51232 17.125 9 17.125C13.4877 17.125 17.125 13.4877 17.125 9C17.125 4.51232 13.4877 0.875 9 0.875ZM12.7753 6.89139C13.0194 7.13547 13.0194 7.5312 12.7753 7.77527L8.60861 11.9419C8.36453 12.186 7.9688 12.186 7.72473 11.9419L5.22473 9.44194C4.98065 9.19786 4.98065 8.80214 5.22473 8.55806C5.4688 8.31398 5.86453 8.31398 6.10861 8.55806L8.16667 10.6161L11.8914 6.89139C12.1355 6.64731 12.5312 6.64731 12.7753 6.89139Z" fill="#22C993"/>
</svg>
