<svg width="20" height="20" viewBox="0 0 20 20" fill="none" xmlns="http://www.w3.org/2000/svg">
<path fill-rule="evenodd" clip-rule="evenodd" d="M4.58319 18.1068C6.18657 19.1782 8.07164 19.75 10 19.75C12.5851 19.7474 15.0635 18.7193 16.8914 16.8914C18.7193 15.0635 19.7474 12.5851 19.75 10C19.75 8.07164 19.1782 6.18657 18.1068 4.58319C17.0355 2.97982 15.5127 1.73013 13.7312 0.992179C11.9496 0.254224 9.98919 0.061142 8.09787 0.437348C6.20656 0.813554 4.46928 1.74215 3.10571 3.10571C1.74215 4.46928 0.813554 6.20656 0.437348 8.09787C0.061142 9.98919 0.254224 11.9496 0.992179 13.7312C1.73013 15.5127 2.97982 17.0355 4.58319 18.1068ZM9.47254 11.0275C9.61263 11.1676 9.8019 11.2474 10 11.25C10.1981 11.2474 10.3874 11.1676 10.5275 11.0275C10.6676 10.8874 10.7474 10.6981 10.75 10.5V5.5C10.75 5.30109 10.671 5.11032 10.5303 4.96967C10.3897 4.82902 10.1989 4.75 10 4.75C9.80109 4.75 9.61033 4.82902 9.46968 4.96967C9.32902 5.11032 9.25 5.30109 9.25 5.5V10.5C9.25259 10.6981 9.33244 10.8874 9.47254 11.0275ZM9.20743 13.4545C9.41719 13.2429 9.70205 13.1226 10 13.12C10.2997 13.12 10.5871 13.2391 10.799 13.451C11.011 13.6629 11.13 13.9503 11.13 14.25C11.13 14.5497 11.011 14.8371 10.799 15.049C10.5871 15.2609 10.2997 15.38 10 15.38C9.70205 15.3774 9.41719 15.2571 9.20743 15.0455C8.99767 14.8339 8.87999 14.548 8.88 14.25C8.87999 13.952 8.99767 13.6661 9.20743 13.4545Z" fill="#FFC400"/>
</svg>
